<svg xmlns="http://www.w3.org/2000/svg" viewBox="0 0 689 188" width="689" height="188" role="img" aria-label="Tally">
<rect x="40.00" y="40.00" width="16.00" height="108.00" rx="2" fill="#113308"/><rect x="70.00" y="40.00" width="16.00" height="108.00" rx="2" fill="#113308"/><rect x="100.00" y="40.00" width="16.00" height="108.00" rx="2" fill="#113308"/><rect x="130.00" y="40.00" width="16.00" height="108.00" rx="2" fill="#113308"/><line x1="34.00" y1="126.40" x2="152.00" y2="61.60" stroke="#A35C17" stroke-width="16.00" stroke-linecap="round"/>
<g transform="translate(194.00,148.00)"><path transform="translate(0.00,0) scale(0.07500,-0.07500)" d="M486 0V1214H20V1440H1193V1214H727V0Z" fill="#113308"/><path transform="translate(93.97,0) scale(0.07500,-0.07500)" d="M40 0 494 1440H847L1301 0H1053L641 1292H695L288 0ZM293 312V537H1049V312Z" fill="#113308"/><path transform="translate(197.55,0) scale(0.07500,-0.07500)" d="M160 0V1440H401V226H1037V0Z" fill="#113308"/><path transform="translate(280.57,0) scale(0.07500,-0.07500)" d="M160 0V1440H401V226H1037V0Z" fill="#113308"/><path transform="translate(363.60,0) scale(0.07500,-0.07500)" d="M490 0V590L0 1440H281L612 866L942 1440H1223L734 590V0Z" fill="#113308"/></g>
</svg>