<svg xmlns="http://www.w3.org/2000/svg" viewBox="0 0 1280 320" width="1280" height="320" role="img" aria-label="Tally">
<rect width="1280" height="320" fill="#113308"/>
<g><line x1="0" y1="0" x2="0" y2="320" stroke="#1F4214" stroke-width="1" opacity="0.35"/><line x1="40" y1="0" x2="40" y2="320" stroke="#1F4214" stroke-width="1" opacity="0.35"/><line x1="80" y1="0" x2="80" y2="320" stroke="#1F4214" stroke-width="1" opacity="0.35"/><line x1="120" y1="0" x2="120" y2="320" stroke="#1F4214" stroke-width="1" opacity="0.35"/><line x1="160" y1="0" x2="160" y2="320" stroke="#1F4214" stroke-width="1" opacity="0.35"/><line x1="200" y1="0" x2="200" y2="320" stroke="#1F4214" stroke-width="1" opacity="0.35"/><line x1="240" y1="0" x2="240" y2="320" stroke="#1F4214" stroke-width="1" opacity="0.35"/><line x1="280" y1="0" x2="280" y2="320" stroke="#1F4214" stroke-width="1" opacity="0.35"/><line x1="320" y1="0" x2="320" y2="320" stroke="#1F4214" stroke-width="1" opacity="0.35"/><line x1="360" y1="0" x2="360" y2="320" stroke="#1F4214" stroke-width="1" opacity="0.35"/><line x1="400" y1="0" x2="400" y2="320" stroke="#1F4214" stroke-width="1" opacity="0.35"/><line x1="440" y1="0" x2="440" y2="320" stroke="#1F4214" stroke-width="1" opacity="0.35"/><line x1="480" y1="0" x2="480" y2="320" stroke="#1F4214" stroke-width="1" opacity="0.35"/><line x1="520" y1="0" x2="520" y2="320" stroke="#1F4214" stroke-width="1" opacity="0.35"/><line x1="560" y1="0" x2="560" y2="320" stroke="#1F4214" stroke-width="1" opacity="0.35"/><line x1="600" y1="0" x2="600" y2="320" stroke="#1F4214" stroke-width="1" opacity="0.35"/><line x1="640" y1="0" x2="640" y2="320" stroke="#1F4214" stroke-width="1" opacity="0.35"/><line x1="680" y1="0" x2="680" y2="320" stroke="#1F4214" stroke-width="1" opacity="0.35"/><line x1="720" y1="0" x2="720" y2="320" stroke="#1F4214" stroke-width="1" opacity="0.35"/><line x1="760" y1="0" x2="760" y2="320" stroke="#1F4214" stroke-width="1" opacity="0.35"/><line x1="800" y1="0" x2="800" y2="320" stroke="#1F4214" stroke-width="1" opacity="0.35"/><line x1="840" y1="0" x2="840" y2="320" stroke="#1F4214" stroke-width="1" opacity="0.35"/><line x1="880" y1="0" x2="880" y2="320" stroke="#1F4214" stroke-width="1" opacity="0.35"/><line x1="920" y1="0" x2="920" y2="320" stroke="#1F4214" stroke-width="1" opacity="0.35"/><line x1="960" y1="0" x2="960" y2="320" stroke="#1F4214" stroke-width="1" opacity="0.35"/><line x1="1000" y1="0" x2="1000" y2="320" stroke="#1F4214" stroke-width="1" opacity="0.35"/><line x1="1040" y1="0" x2="1040" y2="320" stroke="#1F4214" stroke-width="1" opacity="0.35"/><line x1="1080" y1="0" x2="1080" y2="320" stroke="#1F4214" stroke-width="1" opacity="0.35"/><line x1="1120" y1="0" x2="1120" y2="320" stroke="#1F4214" stroke-width="1" opacity="0.35"/><line x1="1160" y1="0" x2="1160" y2="320" stroke="#1F4214" stroke-width="1" opacity="0.35"/><line x1="1200" y1="0" x2="1200" y2="320" stroke="#1F4214" stroke-width="1" opacity="0.35"/><line x1="1240" y1="0" x2="1240" y2="320" stroke="#1F4214" stroke-width="1" opacity="0.35"/><line x1="1280" y1="0" x2="1280" y2="320" stroke="#1F4214" stroke-width="1" opacity="0.35"/><line x1="0" y1="0" x2="1280" y2="0" stroke="#1F4214" stroke-width="1" opacity="0.35"/><line x1="0" y1="40" x2="1280" y2="40" stroke="#1F4214" stroke-width="1" opacity="0.35"/><line x1="0" y1="80" x2="1280" y2="80" stroke="#1F4214" stroke-width="1" opacity="0.35"/><line x1="0" y1="120" x2="1280" y2="120" stroke="#1F4214" stroke-width="1" opacity="0.35"/><line x1="0" y1="160" x2="1280" y2="160" stroke="#1F4214" stroke-width="1" opacity="0.35"/><line x1="0" y1="200" x2="1280" y2="200" stroke="#1F4214" stroke-width="1" opacity="0.35"/><line x1="0" y1="240" x2="1280" y2="240" stroke="#1F4214" stroke-width="1" opacity="0.35"/><line x1="0" y1="280" x2="1280" y2="280" stroke="#1F4214" stroke-width="1" opacity="0.35"/><line x1="0" y1="320" x2="1280" y2="320" stroke="#1F4214" stroke-width="1" opacity="0.35"/></g>
<rect x="335.34" y="106.00" width="16.00" height="108.00" rx="2" fill="#F7F6EB"/><rect x="365.34" y="106.00" width="16.00" height="108.00" rx="2" fill="#F7F6EB"/><rect x="395.34" y="106.00" width="16.00" height="108.00" rx="2" fill="#F7F6EB"/><rect x="425.34" y="106.00" width="16.00" height="108.00" rx="2" fill="#F7F6EB"/><line x1="329.34" y1="192.40" x2="447.34" y2="127.60" stroke="#A35C17" stroke-width="16.00" stroke-linecap="round"/>
<g transform="translate(489.34,214.00)"><path transform="translate(0.00,0) scale(0.07500,-0.07500)" d="M486 0V1214H20V1440H1193V1214H727V0Z" fill="#F7F6EB"/><path transform="translate(93.97,0) scale(0.07500,-0.07500)" d="M40 0 494 1440H847L1301 0H1053L641 1292H695L288 0ZM293 312V537H1049V312Z" fill="#F7F6EB"/><path transform="translate(197.55,0) scale(0.07500,-0.07500)" d="M160 0V1440H401V226H1037V0Z" fill="#F7F6EB"/><path transform="translate(280.57,0) scale(0.07500,-0.07500)" d="M160 0V1440H401V226H1037V0Z" fill="#F7F6EB"/><path transform="translate(363.60,0) scale(0.07500,-0.07500)" d="M490 0V590L0 1440H281L612 866L942 1440H1223L734 590V0Z" fill="#F7F6EB"/></g>
</svg>